<svg width="100" height="100" viewBox="0 0 100 100" fill="none" xmlns="http://www.w3.org/2000/svg">
<g clip-path="url(#clip0_13465_914)">
<rect width="100" height="100" rx="23" fill="#007EBB"/>
<path fill-rule="evenodd" clip-rule="evenodd" d="M80.9999 80.9999H68.2609V59.3025C68.2609 53.3536 66.0005 50.0292 61.292 50.0292C56.1697 50.0292 53.4935 53.4888 53.4935 59.3025V80.9999H41.2166V39.6666H53.4935V45.2342C53.4935 45.2342 57.1849 38.4039 65.9561 38.4039C74.7233 38.4039 80.9999 43.7576 80.9999 54.8303V80.9999ZM26.5704 34.2544C22.3886 34.2544 19 30.8392 19 26.6272C19 22.4152 22.3886 19 26.5704 19C30.7521 19 34.1387 22.4152 34.1387 26.6272C34.1387 30.8392 30.7521 34.2544 26.5704 34.2544ZM20.2311 80.9999H33.0327V39.6666H20.2311V80.9999Z" fill="white"/>
</g>
<defs>
<clipPath id="clip0_13465_914">
<rect width="100" height="100" fill="white"/>
</clipPath>
</defs>
</svg>
